/* XPM */
static char * sierpicon_xpm[] = {
"32 32 2 1",
" 	c #FFFFFF",
".	c #0000FF",
"                                ",
"                                ",
"               ...              ",
"              .....             ",
"              .....             ",
"             .......            ",
"            ........            ",
"            .... ....           ",
"           ....  ....           ",
"           ....   ....          ",
"          ....    ....          ",
"         .....     ....         ",
"         ....      ....         ",
"        ................        ",
"       ..................       ",
"       ..................       ",
"      .......      .......      ",
"     .........     .......      ",
"     .... ....    .... ....     ",
"    ....   ....   .... ....     ",
"    ....   ....  ....   ....    ",
"   ....     .... ....   ....    ",
"  .....     ........     ....   ",
"  ....       .......     ....   ",
" .............................  ",
" .............................  ",
" .............................  ",
"                                ",
"                                ",
"                                ",
"                                ",
"                                "};
